<svg id="그룹_30" data-name="그룹 30" xmlns="http://www.w3.org/2000/svg" xmlns:xlink="http://www.w3.org/1999/xlink" width="166.75" height="39.017" viewBox="0 0 166.75 39.017">
  <defs>
    <clipPath id="clip-path">
      <rect id="사각형_22" data-name="사각형 22" width="166.75" height="39.017" fill="none"/>
    </clipPath>
  </defs>
  <g id="그룹_12" data-name="그룹 12" transform="translate(0 0)" clip-path="url(#clip-path)">
    <path id="패스_5" data-name="패스 5" d="M113.332,45.8a6.729,6.729,0,0,1-2.48-2.7,8.951,8.951,0,0,1,0-7.8,6.827,6.827,0,0,1,12.167,0,8.349,8.349,0,0,1,.892,3.9,10.753,10.753,0,0,1-.09,1.407h-9.814a3.3,3.3,0,0,0,1.007,1.95,2.79,2.79,0,0,0,1.92.69,3.68,3.68,0,0,0,1.547-.307,1.817,1.817,0,0,0,.925-.827H123.5a5.611,5.611,0,0,1-1.28,2.429,6.516,6.516,0,0,1-2.309,1.641,7.434,7.434,0,0,1-2.976.592,6.777,6.777,0,0,1-3.6-.974m6.6-8.03a3.394,3.394,0,0,0-1.029-1.987,2.887,2.887,0,0,0-1.969-.679,2.8,2.8,0,0,0-1.943.679,3.453,3.453,0,0,0-1.007,1.987Z" transform="translate(-54.832 -15.769)" fill="#0e518e"/>
    <path id="패스_6" data-name="패스 6" d="M179.565,32.6a6.765,6.765,0,0,1,2.539,2.7,8.741,8.741,0,0,1,0,7.8,6.786,6.786,0,0,1-2.539,2.7,7.36,7.36,0,0,1-7.319,0,6.791,6.791,0,0,1-2.538-2.7,8.754,8.754,0,0,1,0-7.8,6.771,6.771,0,0,1,2.538-2.7,7.347,7.347,0,0,1,7.319,0m-5.957,3.847a4.734,4.734,0,0,0,0,5.5,3,3,0,0,0,4.6,0,4.738,4.738,0,0,0,0-5.5,3,3,0,0,0-4.6,0" transform="translate(-84.17 -15.769)" fill="#0e518e"/>
    <path id="패스_7" data-name="패스 7" d="M201.133,31.969h4.072v1.48a4.256,4.256,0,0,1,3.751-1.826,4.906,4.906,0,0,1,2.746.778,5.06,5.06,0,0,1,1.842,2.233,8.363,8.363,0,0,1,.65,3.428v8.365h-4.071V38.8a4.423,4.423,0,0,0-.606-2.528,2,2,0,0,0-1.75-.876,2.183,2.183,0,0,0-1.876.962A4.486,4.486,0,0,0,205.205,39v7.426h-4.072Z" transform="translate(-100.297 -15.769)" fill="#0e518e"/>
    <path id="패스_8" data-name="패스 8" d="M234.28,39.909a6.474,6.474,0,0,1-2.31-2.7,9.642,9.642,0,0,1,0-7.8,6.451,6.451,0,0,1,2.31-2.7,6.034,6.034,0,0,1,3.385-.976,4.351,4.351,0,0,1,3.843,1.826V19.814h4.073V40.538h-4.073V39.057a4.354,4.354,0,0,1-3.843,1.825,6.048,6.048,0,0,1-3.385-.974m6.4-3.85a4.144,4.144,0,0,0,.894-2.751,4.149,4.149,0,0,0-.894-2.751,2.929,2.929,0,0,0-2.376-1.072,2.826,2.826,0,0,0-2.312,1.072,4.232,4.232,0,0,0-.867,2.751,4.226,4.226,0,0,0,.867,2.751,2.826,2.826,0,0,0,2.312,1.074,2.929,2.929,0,0,0,2.376-1.074" transform="translate(-115.264 -9.88)" fill="#0e518e"/>
    <path id="패스_9" data-name="패스 9" d="M307.6,39.137,302.7,31.994H307.6l2.609,4.133,2.561-4.133h4.621l-4.781,7.043,5.055,7.415h-4.9L310,42.1l-2.746,4.356h-4.62Z" transform="translate(-150.912 -15.954)" fill="#0e518e"/>
    <path id="패스_10" data-name="패스 10" d="M87.986,30.176a4.435,4.435,0,0,0,1.8-1.542,4.72,4.72,0,0,0,.858-2.726,6.4,6.4,0,0,0-.79-3.232,5.213,5.213,0,0,0-2.3-2.121,8.007,8.007,0,0,0-3.569-.74H75.2v3.824h8.6a2.991,2.991,0,0,1,1.967.59,2.341,2.341,0,0,1,0,3.356,2.98,2.98,0,0,1-1.967.593H79.363V25.734H75.2v14.8h8.783a8.028,8.028,0,0,0,3.569-.741,5.222,5.222,0,0,0,2.3-2.122,6.4,6.4,0,0,0,.79-3.233,4.723,4.723,0,0,0-.858-2.725,4.44,4.44,0,0,0-1.8-1.542m-2.218,5.946a2.988,2.988,0,0,1-1.967.591H79.363v-4.54H83.8a2.972,2.972,0,0,1,1.967.594,2.339,2.339,0,0,1,0,3.355" transform="translate(-37.499 -9.881)" fill="#007fad"/>
    <path id="패스_11" data-name="패스 11" d="M282.309,24.638a8.654,8.654,0,0,0-3.477-3.554,10.661,10.661,0,0,0-5.307-1.269H266.3v3.972h7.3a5.582,5.582,0,0,1,4.233,1.6,6.24,6.24,0,0,1,1.531,4.49,6.192,6.192,0,0,1-1.531,4.477,5.6,5.6,0,0,1-4.233,1.592H270.46V25.88H266.3V40.538h7.229a10.76,10.76,0,0,0,5.307-1.259,10.215,10.215,0,0,0,3.477-4.157,11.027,11.027,0,0,0,1.211-5.243,11.015,11.015,0,0,0-1.211-5.241" transform="translate(-132.792 -9.88)" fill="#007fad"/>
    <path id="패스_12" data-name="패스 12" d="M152.349,32.314l-7.48,20.476h4l7.708-20.476Z" transform="translate(-72.241 -16.114)" fill="#0e518e"/>
    <path id="패스_13" data-name="패스 13" d="M144.5,39.308l-2.275-6.995H137.79l4.7,12.5Z" transform="translate(-68.711 -16.113)" fill="#0e518e"/>
    <path id="패스_14" data-name="패스 14" d="M12.4,1.7c-.053-.363-.078-.731-.139-1.094A5.07,5.07,0,0,0,12.07,0c-.106.463-.2.9-.307,1.328A18.123,18.123,0,0,1,7.537,9.212c-.992,1.109-2.025,2.187-2.945,3.362-.564.723-1.087,1.475-1.62,2.22-.414.582-.767,1.193-1.125,1.8A13.87,13.87,0,0,0,.056,22.128,9.074,9.074,0,0,0,0,23.409c.009.242.019.485.041.717.026.291.063.581.117.871a13.683,13.683,0,0,0,3.406,6.955,6.109,6.109,0,0,1-.38-1.985h0c-.011-.223-.014-.436-.012-.624,0-.324.017-.537.017-.537l0,.014c.01-.146.02-.252.02-.252l.007.025a16.527,16.527,0,0,1,.393-2.443,12.917,12.917,0,0,1,1.474-4.019c.8-1.341,1.692-2.625,2.543-3.938a39.488,39.488,0,0,0,3.241-6.022c.3-.711.557-1.438.8-2.172a18.46,18.46,0,0,0,.53-2.1,17.84,17.84,0,0,0,.2-6.2" transform="translate(0 0)" fill="#5da9df" fill-rule="evenodd"/>
    <path id="패스_15" data-name="패스 15" d="M39.215,25.778a6.884,6.884,0,0,1-1.034,5.573l0,0c2.261-1.15,3.92-4.768,3.92-4.768a9.545,9.545,0,0,0,.522-1.631,9.171,9.171,0,0,0,.148-3.2,15.032,15.032,0,0,0-2.128-5.671,11.309,11.309,0,0,0-.675-1.29c-.533-.744-1.057-1.5-1.621-2.22-.92-1.176-1.953-2.253-2.945-3.362A18.135,18.135,0,0,1,31.18,1.328c-.1-.432-.2-.865-.309-1.328a5.007,5.007,0,0,0-.191.608c-.062.363-.087.73-.14,1.094a17.837,17.837,0,0,0,.2,6.2,18.339,18.339,0,0,0,.531,2.1c.246.733.5,1.46.8,2.172a32.405,32.405,0,0,0,2.793,5.511c.851,1.312,1.742,2.6,2.543,3.937a14.45,14.45,0,0,1,1.81,4.158" transform="translate(-15.139 0)" fill="#0e518e" fill-rule="evenodd"/>
    <path id="패스_16" data-name="패스 16" d="M32.075,49.63c-.034.061-.072.121-.108.179A8.9,8.9,0,0,1,25.526,53.6c-.367.02-.723.025-1.071.018h-.031c-10.616-.256-12.091-12.9-12.091-12.9a36.351,36.351,0,0,0-2.044,4.608c-.016.049-2.268,6.872,1.144,10.828l0,0s1.981,2.7,7.06,3.081h0a13.014,13.014,0,0,0,4.337-.228,12.238,12.238,0,0,0,3.08-1.081,13.659,13.659,0,0,0,1.444-.856c.36-.248.688-.537,1.021-.818a10.7,10.7,0,0,0,2.037-2.322,11.916,11.916,0,0,0,1.348-2.786,10.3,10.3,0,0,0,.416-1.652.542.542,0,0,0-.1.136" transform="translate(-4.76 -20.305)" fill="#007fad" fill-rule="evenodd"/>
  </g>
</svg>
